<svg height="511pt" viewBox="0 -35 511.99954 511" width="511pt" xmlns="http://www.w3.org/2000/svg"><path d="m229.683594 19.054688-211.648438 215.945312c-16.261718 16.59375-13.296875 43.914062 6.148438 56.632812l203.09375 132.824219c17.449218 11.414063 39.996094 11.414063 57.445312 0l203.09375-132.824219c19.445313-12.71875 22.410156-40.039062 6.148438-56.632812l-211.648438-215.945312c-14.449218-14.738282-38.1875-14.738282-52.632812 0zm0 0" fill="#ff8a98"/><path d="m256 292.078125 140.402344-60.472656-130.3125-222.203125c-6.597656-1.875-13.585938-1.875-20.183594 0l-130.3125 222.203125zm0 0" fill="#ffbfc7"/><path d="m115.59375 231.605469-108.089844 29.707031c.179688 11.71875 5.882813 23.265625 16.667969 30.320312l203.09375 132.824219c8.726563 5.707031 18.738281 8.558594 28.738281 8.558594l-.003906-140.933594zm0 0" fill="#ff8a98"/><path d="m487.820312 291.632812c10.785157-7.054687 16.496094-18.601562 16.675782-30.316406l-108.09375-29.710937-140.402344 60.472656.003906 140.9375c10 0 20-2.851563 28.722656-8.558594zm0 0" fill="#fd5c6f"/><path d="m262.257812 235.863281c-8.285156 0-15-6.71875-15-15v-56.914062l-15.335937 12.164062c-6.488281 5.148438-15.925781 4.058594-21.074219-2.429687-5.148437-6.492188-4.058594-15.925782 2.429688-21.074219l39.660156-31.457031c4.507812-3.578125 10.664062-4.257813 15.84375-1.753906 5.183594 2.503906 8.476562 7.75 8.476562 13.503906v87.960937c0 8.28125-6.714843 15-15 15zm0 0" fill="#fff"/><path d="m504.496094 261.316406-108.09375-29.710937-140.402344 60.472656v65.484375c25.945312-.015625 59.226562-13.304688 86.859375-27.148438 33.265625-16.660156 71.019531-21.632812 107.152344-14.054687l37.808593-24.726563c10.785157-7.054687 16.496094-18.601562 16.675782-30.316406zm0 0" fill="#f6334c"/><path d="m7.503906 261.3125c.179688 11.71875 5.882813 23.265625 16.667969 30.316406l37.789063 24.714844c36.109374-7.558594 73.839843-2.578125 107.082031 14.070312 27.652343 13.851563 61.007812 27.148438 86.957031 27.148438v-65.484375l-140.40625-60.476563zm0 0" fill="#fd5c6f"/><path d="m499.320312 229.75-211.648437-215.945312c-8.410156-8.578126-19.65625-13.304688-31.671875-13.304688s-23.265625 4.726562-31.675781 13.304688l-211.644531 215.945312c-9.332032 9.519531-13.855469 22.578125-12.417969 35.828125s8.660156 25.035156 19.816406 32.328125l78.859375 51.574219c3.464844 2.269531 8.113281 1.296875 10.378906-2.171875 2.269532-3.464844 1.296875-8.113282-2.171875-10.378906l-78.855469-51.574219c-6.558593-4.289063-11.054687-10.925781-12.648437-18.5l99.402344-27.324219 133.457031 57.484375v127.863281c-5.996094-1.011718-11.832031-3.242187-17.117188-6.699218l-98.992187-64.742188c-3.464844-2.269531-8.113281-1.296875-10.382813 2.171875-2.265624 3.464844-1.296874 8.113281 2.171876 10.378906l98.992187 64.746094c9.972656 6.519531 21.398437 9.78125 32.828125 9.78125s22.855469-3.261719 32.828125-9.785156l203.09375-132.824219c11.15625-7.296875 18.378906-19.078125 19.816406-32.328125s-3.089843-26.308594-12.417969-35.828125zm-280.632812-188.761719-108.023438 184.191407-93.992187 25.835937c1.40625-3.980469 3.675781-7.660156 6.71875-10.765625zm32.058594-25.015625c1.71875-.308594 8.789062-.308594 10.503906 0l88.359375 150.671875c1.398437 2.382813 5.730469 5.175781 10.265625 2.675781 3.628906-1.996093 4.769531-6.6875 2.675781-10.261718l-69.246093-118.074219 195.300781 199.265625c3.046875 3.105469 5.316406 6.785156 6.722656 10.769531l-94-25.839843-22.460937-38.300782c-2.097657-3.570312-6.691407-4.769531-10.265626-2.675781-3.570312 2.097656-4.769531 6.691406-2.675781 10.265625l19.710938 33.605469-129.636719 55.839843-129.644531-55.839843zm232.964844 269.382813-203.09375 132.824219c-5.289063 3.460937-11.121094 5.6875-17.117188 6.703124v-127.867187l133.449219-57.484375 99.40625 27.324219c-1.589844 7.574219-6.085938 14.210937-12.644531 18.5zm0 0"/><path d="m284.757812 220.863281v-87.960937c0-8.574219-4.988281-16.523438-12.710937-20.257813-7.71875-3.730469-17.050781-2.699219-23.773437 2.632813l-39.65625 31.457031c-9.71875 7.710937-11.65625 22.136719-3.644532 31.613281 15.636719 18.484375 34.785156 1.125 34.785156 1.125v41.390625c0 12.40625 10.09375 22.5 22.5 22.5s22.5-10.09375 22.5-22.5zm-30 0v-56.914062c0-2.878907-1.5625-5.691407-4.238281-6.753907-3.027343-1.203124-6.570312-.195312-7.921875.878907l-15.335937 12.164062c-3.238281 2.570313-7.964844 2.027344-10.535157-1.214843-2.570312-3.242188-2.027343-7.96875 1.214844-10.539063l39.65625-31.457031c2.238282-1.773438 5.347656-2.121094 7.921875-.875 2.574219 1.242187 4.238281 3.894531 4.238281 6.75v87.960937c0 4.136719-3.363281 7.5-7.5 7.5-4.136718 0-7.5-3.363281-7.5-7.5zm0 0"/></svg>